<svg width="772.732" height="189.107" viewBox="0 0 772.732 189.107" xmlns="http://www.w3.org/2000/svg"><defs><clipPath clipPathUnits="userSpaceOnUse" id="a"><path d="M0 768h1366V0H0v768z"/></clipPath></defs><g clip-path="url(#a)" transform="matrix(1.25 0 0 -1.25 -468.034 573.929)"><path d="M395.813 350.585l6.153 13.984 13.601 4.163 10.115 47.589 24.485-27.706 23.921 27.249 11.183-40.1 7.351 1.719 14.983 30.109 10.831 8.308c-12.137 25.565-38.186 43.243-68.367 43.243-41.776 0-75.642-33.867-75.642-75.643 0-12.414 2.99-24.13 8.291-34.466l13.095 1.551z" fill="#1ba89c"/><path d="M514.703 401.745l-15.938-32.024-19.815-4.638-9.046 32.435-19.715-22.457-19.442 22-7.513-35.35-14.72-4.507-6.562-14.914-14.192-1.68c13.644-19.784 36.46-32.753 62.31-32.753 41.776 0 75.642 33.867 75.642 75.643a75.546 75.546 0 01-3.814 23.765l-7.195-5.52z" fill="#117a71"/><path d="M607.15 363.618h-11.985v23.021l-10.808-13.332h-.946l-10.837 13.332v-23.02h-11.64v39.734H571.8l12.213-14.908 12.27 14.908h10.866v-39.735zm22.074 0H617.24v39.735h11.984v-39.735zm45.612 2.982a28.48 28.48 0 00-5.045-2.063 31.869 31.869 0 00-5.204-1.105 43.702 43.702 0 00-5.432-.33c-3.46 0-6.562.478-9.304 1.435-2.742.955-5.122 2.364-7.138 4.228-2.016 1.863-3.527 4.042-4.53 6.536-1.003 2.494-1.504 5.233-1.504 8.214 0 3.42.592 6.417 1.777 8.987 1.184 2.57 2.842 4.707 4.973 6.409 2.132 1.7 4.558 2.956 7.282 3.769 2.725.812 5.596 1.218 8.616 1.218 4.51 0 9.623-1.003 15.337-3.01v-10.55a42.357 42.357 0 01-5.834 3.053c-1.92.813-4.18 1.219-6.78 1.219-2.313 0-4.472-.46-6.48-1.377-2.005-.917-3.622-2.227-4.844-3.927-1.223-1.702-1.835-3.69-1.835-5.963 0-2.008.535-3.847 1.605-5.52 1.071-1.671 2.556-3 4.46-3.984 1.9-.984 4.046-1.476 6.435-1.476 1.93 0 3.755.233 5.476.702 1.72.468 3.167.989 4.343 1.562a38.347 38.347 0 013.626 2.036V366.6zm30.246 24.196c0 1.834-.603 3.115-1.807 3.841-1.203.727-3.163 1.09-5.877 1.09h-2.522v-9.576h2.58c2.924 0 4.926.32 6.006.96 1.08.641 1.62 1.87 1.62 3.685m16.283-27.178h-12.871l-3.126 7.053c-1.146 2.58-2.179 4.466-3.096 5.662-.917 1.193-1.81 1.958-2.68 2.293-.869.335-1.993.502-3.368.502h-1.348v-15.51h-11.984v39.735h20.383c3.288 0 5.983-.67 8.085-2.007 2.102-1.339 3.618-2.963 4.544-4.874.927-1.91 1.391-3.726 1.391-5.447 0-2.006-.387-3.703-1.161-5.088-.775-1.386-1.591-2.394-2.451-3.024a24.256 24.256 0 00-2.896-1.807c1.28-.746 2.337-1.63 3.168-2.652.831-1.023 1.964-3.092 3.398-6.206l4.012-8.63zm35.751 19.896c0 1.491-.22 2.853-.66 4.086a8.746 8.746 0 01-1.992 3.211c-.889.907-1.974 1.614-3.254 2.121-1.28.506-2.763.76-4.444.76-3.21 0-5.734-.937-7.568-2.809-1.836-1.875-2.753-4.33-2.753-7.369 0-3.039.922-5.5 2.767-7.382 1.843-1.883 4.362-2.825 7.554-2.825 2.198 0 4.071.435 5.62 1.305 1.547.87 2.723 2.073 3.525 3.613.804 1.538 1.205 3.301 1.205 5.29m12.212 0c0-3.709-.856-7.12-2.566-10.235-1.71-3.116-4.256-5.59-7.64-7.426-3.383-1.835-7.5-2.753-12.356-2.753-4.912 0-9.069.956-12.47 2.868-3.403 1.911-5.93 4.423-7.583 7.54-1.655 3.115-2.48 6.451-2.48 10.005 0 3.574.82 6.914 2.465 10.02 1.643 3.106 4.171 5.61 7.583 7.511 3.411 1.902 7.573 2.853 12.485 2.853 3.67 0 6.942-.545 9.82-1.635 2.876-1.089 5.241-2.565 7.094-4.429a18.66 18.66 0 004.215-6.507c.955-2.476 1.433-5.08 1.433-7.813m53.669-19.896h-11.984v23.021l-10.808-13.332h-.946l-10.837 13.332v-23.02h-11.64v39.734h10.865l12.214-14.908 12.27 14.908h10.866v-39.735zm39.993 0h-29.959v39.735h29.473v-7.97h-17.489v-7.282H861.7v-7.999h-16.685v-8.486h17.975v-7.998zm46.128 30.074h-14.563v-30.074H882.6v30.074h-14.563v9.66h41.082v-9.66zm36.954-30.074h-29.959v39.735h29.473v-7.97h-17.489v-7.282h16.685v-7.999h-16.685v-8.486h17.975v-7.998zm30.218 27.178c0 1.834-.603 3.115-1.807 3.841-1.203.727-3.163 1.09-5.877 1.09h-2.522v-9.576h2.58c2.924 0 4.926.32 6.006.96 1.08.641 1.62 1.87 1.62 3.685m16.283-27.178h-12.872l-3.125 7.053c-1.146 2.58-2.179 4.466-3.096 5.662-.918 1.193-1.81 1.958-2.68 2.293-.869.335-1.993.502-3.368.502h-1.348v-15.51H954.1v39.735h20.383c3.288 0 5.983-.67 8.085-2.007 2.102-1.339 3.618-2.963 4.544-4.874.927-1.91 1.391-3.726 1.391-5.447 0-2.006-.387-3.703-1.161-5.088-.775-1.386-1.591-2.394-2.451-3.024a24.256 24.256 0 00-2.896-1.807c1.28-.746 2.337-1.63 3.168-2.652.831-1.023 1.964-3.092 3.398-6.206l4.012-8.63z" fill="#343a40"/></g><text style="line-height:0%;-inkscape-font-specification:'Gill Sans'" x="680.182" y="-339.411" transform="matrix(1.25 0 0 1.25 -468.034 573.929)" font-weight="400" font-family="Gill Sans" letter-spacing="0" word-spacing="0"><tspan x="680.182" y="-339.411" style="line-height:1.25;-inkscape-font-specification:'Gill Sans'" font-size="32" fill="#343a40">application observability</tspan></text></svg>